<svg width="40" height="38" viewBox="0 0 40 38" fill="none" xmlns="http://www.w3.org/2000/svg">
<path d="M34.033 11.0595C34.0229 11.0095 34.008 10.9603 33.9885 10.9127C33.9689 10.8658 33.9447 10.8205 33.9166 10.7783C33.8877 10.7353 33.8557 10.6955 33.8189 10.6595C33.7829 10.6236 33.7432 10.5908 33.7001 10.5627C33.6579 10.5345 33.6127 10.5103 33.5657 10.4908C33.5189 10.4713 33.4697 10.4556 33.4196 10.4463C33.3189 10.426 33.215 10.426 33.1142 10.4463C33.0642 10.4556 33.015 10.4713 32.9682 10.4908C32.9213 10.5103 32.876 10.5338 32.833 10.5627C32.7907 10.5908 32.7502 10.6236 32.7143 10.6595C32.6783 10.6955 32.6454 10.7353 32.6174 10.7783C32.5892 10.8205 32.565 10.8658 32.5455 10.9127C32.526 10.9603 32.5111 11.0095 32.501 11.0595C32.4908 11.1096 32.4854 11.1611 32.4854 11.2119C32.4854 11.2627 32.4908 11.3142 32.501 11.3642C32.5111 11.4142 32.526 11.4635 32.5455 11.5103C32.565 11.558 32.5893 11.6033 32.6174 11.6455C32.6454 11.6885 32.6783 11.7283 32.7143 11.7642C32.7502 11.8002 32.7908 11.833 32.833 11.8611C32.8759 11.8892 32.9212 11.9135 32.9682 11.933C33.015 11.9525 33.0642 11.9674 33.1142 11.9775C33.165 11.9877 33.2158 11.9931 33.2665 11.9931C33.4728 11.9931 33.6736 11.9096 33.8189 11.7642C33.8557 11.7283 33.8877 11.6885 33.9166 11.6455C33.9447 11.6033 33.9689 11.558 33.9885 11.5103C34.008 11.4635 34.0229 11.4142 34.033 11.3642C34.0432 11.3142 34.0479 11.2627 34.0479 11.2119C34.0479 11.1611 34.0432 11.1096 34.033 11.0595Z" fill="#333333"/>
<path d="M39.2188 0H0.78125C0.349766 0 0 0.349766 0 0.78125V7.53531C0 7.96679 0.349766 8.31656 0.78125 8.31656H1.8757V37.0019C1.8757 37.4334 2.22547 37.7831 2.65695 37.7831H37.343C37.7745 37.7831 38.1243 37.4334 38.1243 37.0019V8.31656H39.2188C39.6502 8.31656 40 7.96679 40 7.53531V0.78125C40 0.349766 39.6502 0 39.2188 0ZM14.8502 1.5625H25.1498V6.75406H14.8502V1.5625ZM14.8502 8.31656H25.1498V18.5224L23.4091 17.315C23.1413 17.1293 22.7864 17.1293 22.5187 17.3149L20 19.0611L17.4812 17.3148C17.3473 17.222 17.1917 17.1756 17.0361 17.1756C16.8804 17.1756 16.7247 17.2221 16.5908 17.3149L14.8502 18.5223V8.31656ZM1.5625 6.75406V1.5625H13.2877V6.75406H1.5625ZM13.2877 8.31656V10.4306H3.4382V8.31656H13.2877ZM21.2149 22.4364V36.2206H3.4382V11.993H13.2877V20.0151C13.2877 20.3058 13.4491 20.5724 13.7067 20.7073C13.9643 20.8421 14.2755 20.8227 14.5143 20.657L17.0362 18.9077L19.5548 20.6538C19.8226 20.8395 20.1774 20.8395 20.4451 20.6538L22.9638 18.9077L25.4857 20.657C25.6189 20.7494 25.7746 20.7963 25.931 20.7963C26.0549 20.7963 26.1794 20.7668 26.2932 20.7073C26.5508 20.5724 26.7122 20.3058 26.7122 20.0151V11.993H30.1389C30.5703 11.993 30.9202 11.6433 30.9202 11.2118C30.9202 10.7803 30.5703 10.4305 30.1389 10.4305H26.7122V8.31648H36.5617V21.6552H21.9962C21.5648 21.6552 21.2149 22.0049 21.2149 22.4364ZM36.5618 36.2206H22.7774V23.2177H36.5618V36.2206ZM38.4375 6.75406H26.7123V1.5625H38.4375V6.75406Z" fill="#333333"/>
<path d="M35.2022 28.0446C35.0264 26.3058 33.6157 24.9979 31.9102 24.9979C31.0804 24.9979 30.328 25.3317 29.7588 25.9261C29.1429 25.3518 28.3091 24.9979 27.4637 24.9979C25.7731 24.9979 24.4729 26.2494 24.2935 28.0449C24.27 28.2038 24.236 28.6249 24.3899 29.245C24.6228 30.1817 25.1567 31.0306 25.9397 31.7046L29.1957 34.4519C29.3537 34.5864 29.5507 34.6537 29.7477 34.6537C29.9445 34.6537 30.1413 34.5867 30.2993 34.4524L33.5614 31.6998C34.3388 31.0313 34.8727 30.1825 35.1056 29.245C35.2598 28.6246 35.2255 28.2033 35.2022 28.0446ZM33.5891 28.8682C33.4348 29.4896 33.0729 30.059 32.5481 30.5104L29.7477 32.8734L26.9531 30.5153C26.4225 30.0586 26.0606 29.4891 25.9063 28.8683C25.8248 28.5397 25.8334 28.3378 25.8375 28.2874C25.8453 28.2567 25.8428 28.2567 25.8465 28.2166C25.9237 27.3921 26.4536 26.5603 27.4636 26.5603C28.1313 26.5603 28.8092 26.9948 29.0753 27.5934C29.2008 27.8754 29.4806 28.0572 29.7892 28.0572C29.7892 28.0572 29.7893 28.0572 29.7894 28.0572C30.0981 28.0571 30.3779 27.8753 30.5032 27.5932C30.6746 27.2075 31.0852 26.5603 31.9102 26.5603C32.8279 26.5603 33.5592 27.2569 33.6491 28.2167C33.6528 28.2567 33.6502 28.2567 33.6581 28.2874C33.6621 28.3378 33.6708 28.5397 33.5891 28.8682Z" fill="#333333"/>
</svg>
